<mxfile host="app.diagrams.net" modified="2023-10-13T09:23:41.055Z" agent="5.0 (Windows NT 10.0; Win64; x64) AppleWebKit/537.36 (KHTML, like Gecko) Chrome/117.0.0.0 Safari/537.36 Edg/117.0.2045.47" etag="eG48mtnMz7JBhcZeBbkx" version="20.8.23" type="github">
  <diagram name="Page-1" id="w86fXEYiLEM7NNfeaBq7">
    <mxGraphModel dx="1678" dy="933" grid="1" gridSize="10" guides="1" tooltips="1" connect="1" arrows="1" fold="1" page="1" pageScale="1" pageWidth="827" pageHeight="1169" math="0" shadow="0">
      <root>
        <mxCell id="0" />
        <mxCell id="1" parent="0" />
        <mxCell id="xhqUebljRvIyVb8sI_vI-24" value="" style="rounded=0;whiteSpace=wrap;html=1;dashed=1;fillColor=#fff2cc;strokeColor=#d6b656;opacity=80;" vertex="1" parent="1">
          <mxGeometry x="425" y="290" width="120" height="380" as="geometry" />
        </mxCell>
        <mxCell id="xhqUebljRvIyVb8sI_vI-14" value="" style="rounded=0;whiteSpace=wrap;html=1;fillColor=none;fontColor=#333333;strokeColor=#666666;dashed=1;" vertex="1" parent="1">
          <mxGeometry x="50" y="120" width="270" height="580" as="geometry" />
        </mxCell>
        <mxCell id="xhqUebljRvIyVb8sI_vI-15" value="" style="rounded=0;whiteSpace=wrap;html=1;fillColor=none;fontColor=#333333;strokeColor=#666666;dashed=1;" vertex="1" parent="1">
          <mxGeometry x="350" y="120" width="270" height="580" as="geometry" />
        </mxCell>
        <mxCell id="xhqUebljRvIyVb8sI_vI-1" value="" style="aspect=fixed;html=1;points=[];align=center;image;fontSize=12;image=img/lib/azure2/general/Resource_Groups.svg;" vertex="1" parent="1">
          <mxGeometry x="150" y="460" width="68" height="64" as="geometry" />
        </mxCell>
        <mxCell id="xhqUebljRvIyVb8sI_vI-2" value="" style="aspect=fixed;html=1;points=[];align=center;image;fontSize=12;image=img/lib/azure2/general/Subscriptions.svg;" vertex="1" parent="1">
          <mxGeometry x="162" y="300" width="44" height="71" as="geometry" />
        </mxCell>
        <mxCell id="xhqUebljRvIyVb8sI_vI-3" value="" style="aspect=fixed;html=1;points=[];align=center;image;fontSize=12;image=img/lib/azure2/general/Management_Groups.svg;" vertex="1" parent="1">
          <mxGeometry x="151" y="140" width="66" height="64" as="geometry" />
        </mxCell>
        <mxCell id="xhqUebljRvIyVb8sI_vI-18" style="edgeStyle=orthogonalEdgeStyle;rounded=0;orthogonalLoop=1;jettySize=auto;html=1;startArrow=classic;startFill=1;" edge="1" parent="1" source="xhqUebljRvIyVb8sI_vI-4" target="xhqUebljRvIyVb8sI_vI-9">
          <mxGeometry relative="1" as="geometry" />
        </mxCell>
        <mxCell id="xhqUebljRvIyVb8sI_vI-22" value="peering" style="edgeLabel;html=1;align=center;verticalAlign=middle;resizable=0;points=[];fontSize=15;" vertex="1" connectable="0" parent="xhqUebljRvIyVb8sI_vI-18">
          <mxGeometry x="-0.1871" y="-1" relative="1" as="geometry">
            <mxPoint as="offset" />
          </mxGeometry>
        </mxCell>
        <mxCell id="xhqUebljRvIyVb8sI_vI-4" value="" style="aspect=fixed;html=1;points=[];align=center;image;fontSize=12;image=img/lib/azure2/networking/Virtual_Networks.svg;" vertex="1" parent="1">
          <mxGeometry x="218" y="609" width="67" height="40" as="geometry" />
        </mxCell>
        <mxCell id="xhqUebljRvIyVb8sI_vI-5" value="" style="aspect=fixed;html=1;points=[];align=center;image;fontSize=12;image=img/lib/azure2/networking/Route_Tables.svg;" vertex="1" parent="1">
          <mxGeometry x="87" y="598" width="64" height="62" as="geometry" />
        </mxCell>
        <mxCell id="xhqUebljRvIyVb8sI_vI-6" value="" style="aspect=fixed;html=1;points=[];align=center;image;fontSize=12;image=img/lib/azure2/general/Resource_Groups.svg;" vertex="1" parent="1">
          <mxGeometry x="444" y="460" width="68" height="64" as="geometry" />
        </mxCell>
        <mxCell id="xhqUebljRvIyVb8sI_vI-7" value="" style="aspect=fixed;html=1;points=[];align=center;image;fontSize=12;image=img/lib/azure2/general/Subscriptions.svg;" vertex="1" parent="1">
          <mxGeometry x="456" y="300" width="44" height="71" as="geometry" />
        </mxCell>
        <mxCell id="xhqUebljRvIyVb8sI_vI-8" value="" style="aspect=fixed;html=1;points=[];align=center;image;fontSize=12;image=img/lib/azure2/general/Management_Groups.svg;" vertex="1" parent="1">
          <mxGeometry x="445" y="140" width="66" height="64" as="geometry" />
        </mxCell>
        <mxCell id="xhqUebljRvIyVb8sI_vI-9" value="" style="aspect=fixed;html=1;points=[];align=center;image;fontSize=12;image=img/lib/azure2/networking/Virtual_Networks.svg;" vertex="1" parent="1">
          <mxGeometry x="440" y="609" width="67" height="40" as="geometry" />
        </mxCell>
        <mxCell id="xhqUebljRvIyVb8sI_vI-16" value="hub (existing)" style="text;strokeColor=none;fillColor=none;html=1;fontSize=24;fontStyle=1;verticalAlign=middle;align=center;" vertex="1" parent="1">
          <mxGeometry x="135" y="50" width="100" height="40" as="geometry" />
        </mxCell>
        <mxCell id="xhqUebljRvIyVb8sI_vI-19" value="spoke (new)" style="text;strokeColor=none;fillColor=none;html=1;fontSize=24;fontStyle=1;verticalAlign=middle;align=center;" vertex="1" parent="1">
          <mxGeometry x="435" y="50" width="100" height="40" as="geometry" />
        </mxCell>
        <mxCell id="xhqUebljRvIyVb8sI_vI-20" value="" style="endArrow=none;dashed=1;html=1;dashPattern=1 3;strokeWidth=2;rounded=0;" edge="1" parent="1" source="xhqUebljRvIyVb8sI_vI-9" target="xhqUebljRvIyVb8sI_vI-5">
          <mxGeometry width="50" height="50" relative="1" as="geometry">
            <mxPoint x="220" y="800" as="sourcePoint" />
            <mxPoint x="270" y="750" as="targetPoint" />
            <Array as="points">
              <mxPoint x="474" y="790" />
              <mxPoint x="120" y="790" />
            </Array>
          </mxGeometry>
        </mxCell>
        <mxCell id="xhqUebljRvIyVb8sI_vI-23" value="new vnet ip range added" style="edgeLabel;html=1;align=center;verticalAlign=middle;resizable=0;points=[];fontSize=15;" vertex="1" connectable="0" parent="xhqUebljRvIyVb8sI_vI-20">
          <mxGeometry x="0.0752" relative="1" as="geometry">
            <mxPoint as="offset" />
          </mxGeometry>
        </mxCell>
      </root>
    </mxGraphModel>
  </diagram>
</mxfile>
